<?xml version="1.0" standalone="no"?>
<!DOCTYPE svg PUBLIC "-//W3C//DTD SVG 20010904//EN"
 "http://www.w3.org/TR/2001/REC-SVG-20010904/DTD/svg10.dtd">
<svg version="1.0" xmlns="http://www.w3.org/2000/svg"
 width="280.000000pt" height="180.000000pt" viewBox="0 0 280.000000 180.000000"
 preserveAspectRatio="xMidYMid meet">

<g transform="translate(0.000000,180.000000) scale(0.100000,-0.100000)"
fill="#000000" stroke="none">
<path d="M2390 1750 c-102 -35 -170 -134 -170 -249 0 -83 35 -129 145 -194 85
-50 115 -79 115 -112 0 -40 -33 -65 -85 -65 -53 0 -91 17 -143 65 l-37 33 -52
-78 -52 -78 37 -37 c20 -20 60 -49 87 -63 44 -24 62 -27 145 -27 78 0 104 4
145 23 123 56 181 171 154 300 -14 70 -53 113 -158 175 -91 55 -107 73 -90
111 24 52 95 52 167 -2 19 -13 37 -20 42 -16 4 5 24 39 44 75 34 62 35 67 18
81 -53 45 -147 78 -216 78 -23 -1 -66 -9 -96 -20z"/>
<path d="M1036 1698 c-3 -29 -9 -70 -12 -90 l-7 -38 87 0 c84 0 86 -1 81 -22
-2 -13 -14 -81 -24 -153 -11 -71 -29 -190 -41 -263 -29 -191 -37 -172 78 -172
l98 0 43 288 c23 158 45 295 47 305 5 14 18 17 85 17 43 0 79 1 79 3 0 1 7 40
15 87 8 47 15 86 15 88 0 1 -121 2 -269 2 l-268 0 -7 -52z"/>
<path d="M1612 1673 c-7 -43 -12 -84 -12 -90 0 -9 23 -13 80 -13 76 0 80 -1
80 -22 0 -13 -20 -150 -43 -305 l-43 -283 101 0 100 0 46 303 45 302 81 3 c92
3 83 -6 98 102 4 25 9 53 11 63 5 16 -12 17 -264 17 l-269 0 -11 -77z"/>
<path d="M186 1551 c5 -5 77 -48 159 -96 175 -102 173 -101 160 -88 -22 22
-300 193 -314 193 -9 0 -11 -3 -5 -9z"/>
<path d="M120 1521 c0 -9 421 -233 427 -228 4 4 -366 214 -399 226 -16 6 -28
7 -28 2z"/>
<path d="M80 1470 c0 -5 10 -16 23 -24 30 -19 422 -196 433 -195 9 0 -365 191
-423 216 -19 8 -33 9 -33 3z"/>
<path d="M52 1399 c4 -15 462 -203 479 -197 10 3 -418 194 -459 205 -18 4 -23
2 -20 -8z"/>
<path d="M520 1356 c0 -3 9 -10 20 -16 11 -6 20 -8 20 -6 0 3 -9 10 -20 16
-11 6 -20 8 -20 6z"/>
<path d="M46 1321 c-3 -5 0 -14 7 -20 17 -14 477 -163 491 -158 8 3 -472 187
-488 187 -2 0 -7 -4 -10 -9z"/>
<path d="M60 1221 c0 -20 36 -32 250 -86 124 -31 234 -58 245 -62 15 -4 17 -2
9 6 -11 12 -461 151 -489 151 -8 0 -15 -4 -15 -9z"/>
<path d="M794 1126 c11 -9 24 -16 30 -16 12 0 7 5 -24 19 -24 11 -24 11 -6 -3z"/>
<path d="M100 1111 c0 -23 49 -37 262 -72 210 -34 251 -39 237 -24 -7 6 -455
105 -479 105 -11 0 -20 -4 -20 -9z"/>
<path d="M820 1080 c8 -5 20 -10 25 -10 6 0 3 5 -5 10 -8 5 -19 10 -25 10 -5
0 -3 -5 5 -10z"/>
<path d="M820 1045 c46 -18 64 -17 25 0 -16 8 -37 14 -45 14 -8 0 1 -7 20 -14z"/>
<path d="M815 1012 c6 -5 28 -12 50 -16 25 -3 33 -3 20 3 -36 15 -81 23 -70
13z"/>
<path d="M170 986 c0 -24 51 -35 214 -46 336 -22 355 -6 41 34 -242 30 -255
31 -255 12z"/>
<path d="M918 983 c7 -3 16 -2 19 1 4 3 -2 6 -13 5 -11 0 -14 -3 -6 -6z"/>
<path d="M850 960 c14 -4 39 -8 55 -8 l30 0 -30 8 c-16 4 -41 8 -55 8 l-25 0
25 -8z"/>
<path d="M948 943 c6 -2 18 -2 25 0 6 3 1 5 -13 5 -14 0 -19 -2 -12 -5z"/>
<path d="M860 919 c0 -5 23 -9 52 -9 28 0 49 2 47 4 -9 8 -99 13 -99 5z"/>
<path d="M988 903 c7 -3 16 -2 19 1 4 3 -2 6 -13 5 -11 0 -14 -3 -6 -6z"/>
<path d="M1090 900 c0 -7 292 -10 855 -10 563 0 855 3 855 10 0 7 -292 10
-855 10 -563 0 -855 -3 -855 -10z"/>
<path d="M267 874 c-14 -14 -7 -25 26 -38 29 -12 131 -8 411 13 6 1 6 4 0 10
-11 11 -427 25 -437 15z"/>
<path d="M900 870 c0 -6 25 -10 58 -9 41 0 51 3 37 9 -28 12 -95 12 -95 0z"/>
<path d="M993 833 c-24 -2 -43 -9 -43 -15 0 -13 82 -4 108 12 19 10 20 10 -65
3z"/>
<path d="M1038 788 c-36 -9 -47 -21 -30 -31 4 -3 30 6 57 18 52 24 38 30 -27
13z"/>
<path d="M548 770 c-86 -10 -162 -21 -168 -25 -18 -11 19 -45 50 -45 21 0 194
34 328 65 32 8 17 25 -21 24 -18 -1 -103 -9 -189 -19z"/>
<path d="M1098 749 c-21 -11 -38 -24 -38 -29 0 -19 26 -10 60 20 40 34 31 38
-22 9z"/>
<path d="M1146 710 c-32 -29 -39 -50 -17 -50 11 0 64 70 58 76 -3 3 -21 -9
-41 -26z"/>
<path d="M657 667 c-131 -36 -148 -43 -145 -61 6 -42 47 -37 202 26 134 55
169 79 113 77 -12 0 -89 -19 -170 -42z"/>
<path d="M1198 672 c-25 -37 -27 -52 -6 -52 10 0 40 70 35 83 -1 5 -15 -9 -29
-31z"/>
<path d="M1252 644 c-14 -50 -15 -64 -2 -64 11 0 24 59 18 87 -2 11 -8 4 -16
-23z"/>
<path d="M1306 628 c-9 -36 -7 -78 4 -78 6 0 10 23 10 50 0 54 -4 63 -14 28z"/>
<path d="M783 572 c-73 -37 -133 -71 -133 -77 0 -18 23 -35 46 -35 26 0 239
145 239 162 0 23 -23 15 -152 -50z"/>
<path d="M1351 615 c-1 -37 12 -95 21 -95 9 0 1 59 -13 95 l-8 20 0 -20z"/>
<path d="M1406 560 c3 -25 10 -49 15 -54 17 -18 16 -1 -2 49 l-19 50 6 -45z"/>
<path d="M903 484 c-57 -47 -103 -89 -103 -94 0 -13 30 -40 45 -40 15 0 45 31
138 140 53 62 61 81 34 80 -7 -1 -58 -39 -114 -86z"/>
<path d="M1450 557 c0 -15 30 -80 36 -74 3 3 -4 22 -15 44 -11 21 -20 34 -21
30z"/>
<path d="M1505 514 c8 -20 15 -38 15 -40 0 -2 5 -4 10 -4 6 0 1 18 -10 40 -25
50 -35 52 -15 4z"/>
<path d="M1590 546 c0 -2 8 -10 18 -17 15 -13 16 -12 3 4 -13 16 -21 21 -21
13z"/>
<path d="M1544 513 c9 -17 21 -35 27 -39 13 -8 -1 21 -26 51 -15 19 -15 18 -1
-12z"/>
<path d="M1651 514 c13 -17 26 -30 28 -27 3 2 -8 16 -24 31 l-28 27 24 -31z"/>
<path d="M1590 500 c12 -16 24 -30 26 -30 3 0 -4 14 -16 30 -12 17 -24 30 -26
30 -3 0 4 -13 16 -30z"/>
<path d="M1027 408 c-68 -93 -74 -105 -63 -123 28 -42 48 -25 108 90 31 61 56
114 54 119 -7 27 -30 7 -99 -86z"/>
<path d="M1635 490 c10 -11 20 -20 23 -20 3 0 -3 9 -13 20 -10 11 -20 20 -23
20 -3 0 3 -9 13 -20z"/>
<path d="M1148 338 c-48 -120 -49 -148 -5 -148 21 0 25 10 50 123 31 142 31
137 14 137 -7 0 -34 -50 -59 -112z"/>
<path d="M1286 399 c-13 -37 -36 -232 -31 -250 5 -14 14 -19 28 -17 21 3 22 8
25 132 1 77 -1 133 -7 139 -7 7 -12 6 -15 -4z"/>
<path d="M1374 348 c3 -13 6 -71 6 -130 0 -85 3 -110 16 -123 34 -34 39 -2 21
132 -10 69 -20 130 -23 135 -11 18 -26 7 -20 -14z"/>
<path d="M1919 262 c86 -95 101 -109 101 -95 0 5 -41 49 -92 98 l-92 90 83
-93z"/>
<path d="M1959 277 c41 -42 77 -74 80 -71 6 6 -85 99 -124 126 -16 12 4 -13
44 -55z"/>
<path d="M1995 302 c27 -29 51 -52 53 -52 10 0 -8 20 -53 60 l-50 44 50 -52z"/>
<path d="M1465 298 c21 -139 41 -222 57 -232 9 -5 20 -7 24 -4 9 10 -66 278
-78 278 -5 0 -6 -19 -3 -42z"/>
<path d="M1881 238 c79 -99 99 -120 99 -101 0 9 -168 203 -176 203 -2 0 32
-46 77 -102z"/>
<path d="M1572 193 c22 -70 45 -134 50 -141 15 -18 28 -15 28 6 0 27 -94 255
-107 259 -6 2 7 -54 29 -124z"/>
<path d="M1770 317 c0 -9 148 -215 160 -222 27 -17 2 27 -62 109 -83 105 -98
123 -98 113z"/>
<path d="M1656 183 c57 -134 66 -149 83 -139 12 8 -113 266 -128 266 -5 0 15
-57 45 -127z"/>
<path d="M1707 223 c71 -136 93 -173 103 -173 6 0 10 5 10 11 0 16 -141 249
-151 249 -4 0 13 -39 38 -87z"/>
<path d="M1731 290 c8 -14 39 -64 68 -112 54 -88 77 -116 87 -105 7 6 -140
222 -159 234 -7 4 -5 -3 4 -17z"/>
</g>
</svg>
